<?xml version="1.0"?><svg width="793.701" height="1122.52" xmlns="http://www.w3.org/2000/svg">

 <g>
  <title>Layer 1</title>
  <g id="layer1">
   <path d="m341.196014,210.132996c-15.144012,0 -30.268005,5.831009 -41.875,17.438004c-23.212006,23.212006 -23.212006,60.568008 0,83.780991l118.781982,118.812012l-274.906998,0c-32.828003,0 -59.249596,26.45401 -59.249596,59.282013c0,32.826996 26.421593,59.249969 59.249596,59.249969l274.938004,0l-118.812988,118.812012c-23.212006,23.213013 -23.212006,60.567993 0,83.781006c23.212982,23.213013 60.569,23.213013 83.781982,0l219.967987,-219.968018c23.213013,-23.212982 23.213013,-60.56897 0,-83.781982l-219.967987,-219.968002c-11.606995,-11.606995 -26.761993,-17.438004 -41.906982,-17.438004z" fill="#ff0000" id="rect1061"/>
  </g>
 </g>
</svg>